<svg id="Layer_1" data-name="Layer 1" xmlns="http://www.w3.org/2000/svg" viewBox="0 0 758.74 72.82"><defs><style>.cls-1{fill:#fff;}.cls-2{fill:#004194;}</style></defs><path class="cls-1" d="M33.9,63.75a4.26,4.26,0,0,1-.32,2.58,6.48,6.48,0,0,1-1.77,1.81A13.54,13.54,0,0,1,30,69.22a23.22,23.22,0,0,1-2.48,1,28.67,28.67,0,0,1-2.88.81,29.17,29.17,0,0,1-3,.52,26.4,26.4,0,0,1-7.66-.15,17.33,17.33,0,0,1-6.51-2.47,15.52,15.52,0,0,1-4.78-4.86A17.72,17.72,0,0,1,.18,56.79a17.32,17.32,0,0,1,.67-8,16.54,16.54,0,0,1,3.7-6.09,18.57,18.57,0,0,1,5.84-4.07,24.62,24.62,0,0,1,7.12-2,18.23,18.23,0,0,1,8.68.66q3.33,1.3,3.64,4a4.19,4.19,0,0,1-.45,2.55,6,6,0,0,1-1.5,1.83,23.72,23.72,0,0,0-3.7-1.2,13.56,13.56,0,0,0-4.85-.23,10.58,10.58,0,0,0-7.19,3.53,9.57,9.57,0,0,0-1.89,7.6,11.37,11.37,0,0,0,1.29,4.25A8.11,8.11,0,0,0,14,62.37a8.44,8.44,0,0,0,3.17,1.39,10.83,10.83,0,0,0,3.65.14,9.61,9.61,0,0,0,2.16-.47,6.45,6.45,0,0,0,1.39-.67c-.24-2-.36-3.08-.61-5.13l-6,.71a8.92,8.92,0,0,1-.84-1.5,7.15,7.15,0,0,1-.56-2,3.81,3.81,0,0,1,.59-2.95,3.29,3.29,0,0,1,2.28-1.16c3.79-.46,5.69-.68,9.49-1.12a3.63,3.63,0,0,1,2.72.59,3.47,3.47,0,0,1,1.22,2.44C33.13,57.06,33.39,59.29,33.9,63.75Z" transform="translate(0 -0.02)"/><path class="cls-1" d="M50.69,67.11a14.23,14.23,0,0,1-1.89.54,21.87,21.87,0,0,1-2.58.46,12.84,12.84,0,0,1-2.28.06,4.18,4.18,0,0,1-1.73-.5,3.06,3.06,0,0,1-1.16-1.25,6.89,6.89,0,0,1-.59-2.26L37.19,35.3c.41-.12,1.06-.29,2-.52a19.3,19.3,0,0,1,2.57-.49A13.16,13.16,0,0,1,44,34.23a4.22,4.22,0,0,1,1.74.5A3,3,0,0,1,46.92,36a6.36,6.36,0,0,1,.59,2.26Z" transform="translate(0 -0.02)"/><path class="cls-1" d="M54.5,50.1a19.49,19.49,0,0,1,.56-7.7,15.8,15.8,0,0,1,3.19-5.9,16.14,16.14,0,0,1,5.29-4,20.75,20.75,0,0,1,6.91-1.88,20.51,20.51,0,0,1,8.71.87,14.83,14.83,0,0,1,6.71,4.51,12.23,12.23,0,0,0,.83-3.43c.13-1.24-.33-3.83.09-4.68.14-.28,1-.61,1.55-.81a8,8,0,0,1,2-.41,6,6,0,0,1,3.27.55A3.1,3.1,0,0,1,95.26,30a12.32,12.32,0,0,1-.17,3.36,11.88,11.88,0,0,1-3.15,6.07A9.66,9.66,0,0,1,89,41.49a18.66,18.66,0,0,1,.65,2.37,21,21,0,0,1,.39,2.61,20.13,20.13,0,0,1-.61,7.72,15.53,15.53,0,0,1-3.19,5.89A16.06,16.06,0,0,1,81,64,21.21,21.21,0,0,1,74,65.86a20.65,20.65,0,0,1-7.16-.45,15.5,15.5,0,0,1-10.23-8A19.72,19.72,0,0,1,54.5,50.1ZM64.61,49q.51,5,2.85,7.22a6.89,6.89,0,0,0,5.79,1.89,7,7,0,0,0,5.36-3c1.21-1.78,1.66-4.33,1.33-7.65s-1.26-5.68-2.79-7.18a6.93,6.93,0,0,0-5.85-1.9,7.09,7.09,0,0,0-5.36,3Q64.08,44,64.61,49ZM73,17.92a6.7,6.7,0,0,1,4.1.89,3.23,3.23,0,0,1,1.44,2.37,3.39,3.39,0,0,1-.69,2.61,8.46,8.46,0,0,1-2.74,2l-7.45,3.74a5,5,0,0,1-2.76-1,3,3,0,0,1-1.22-2.09,2.93,2.93,0,0,1,.27-1.52,3,3,0,0,1,1.21-1.28C68.28,21.31,69.85,20.18,73,17.92Z" transform="translate(0 -0.02)"/><path class="cls-1" d="M110.58,61.14a15.41,15.41,0,0,1-1.9.5,19.43,19.43,0,0,1-2.58.4,11.67,11.67,0,0,1-2.28,0,4.25,4.25,0,0,1-1.72-.53A3.08,3.08,0,0,1,101,60.25a6.55,6.55,0,0,1-.55-2.27q-1.33-14.46-2.69-28.92l2-.48a18.15,18.15,0,0,1,2.59-.43,11.87,11.87,0,0,1,2.3,0,4.15,4.15,0,0,1,1.73.54,2.89,2.89,0,0,1,1.14,1.27,6.61,6.61,0,0,1,.55,2.27Q109.28,46.69,110.58,61.14Z" transform="translate(0 -0.02)"/><path class="cls-1" d="M125.34,34.35a7.69,7.69,0,0,1-.87-1.58,7.12,7.12,0,0,1-.52-2.16,4.09,4.09,0,0,1,.73-3.16,3.6,3.6,0,0,1,2.49-1.14c9.87-.82,14.8-1.21,24.67-1.95a7.51,7.51,0,0,1,1.36,3.76,4.07,4.07,0,0,1-.76,3.14,3.6,3.6,0,0,1-2.5,1.13l-6.26.48q1,12.66,2,25.34a16.81,16.81,0,0,1-1.9.48,21.21,21.21,0,0,1-2.59.36,11.46,11.46,0,0,1-2.28,0,4.06,4.06,0,0,1-1.71-.55,3,3,0,0,1-1.12-1.29,6.61,6.61,0,0,1-.52-2.27c-.69-8.51-1-12.77-1.72-21.28Z" transform="translate(0 -0.02)"/><path class="cls-1" d="M190.49,55.05a15.9,15.9,0,0,1-1.91.46,23.39,23.39,0,0,1-2.6.33,11.9,11.9,0,0,1-2.27-.05,4.12,4.12,0,0,1-1.7-.58,3,3,0,0,1-1.1-1.3,6.57,6.57,0,0,1-.49-2.29c-.22-3.42-.34-5.13-.56-8.56l-10.8.73c.35,5.05.53,7.58.88,12.62a15,15,0,0,1-1.91.47,21.17,21.17,0,0,1-2.59.35,12.13,12.13,0,0,1-2.28,0,4,4,0,0,1-1.7-.57,3,3,0,0,1-1.11-1.3,6.72,6.72,0,0,1-.5-2.28q-1.07-14.47-2.11-29,.62-.16,1.95-.45a19.29,19.29,0,0,1,2.59-.38,12.45,12.45,0,0,1,2.31,0,4.12,4.12,0,0,1,1.72.57,3,3,0,0,1,1.11,1.3,6.32,6.32,0,0,1,.5,2.28c.25,3.51.37,5.27.61,8.78,4.33-.3,6.5-.45,10.83-.73l-.85-12.85c.41-.1,1.06-.24,2-.43a17.68,17.68,0,0,1,2.59-.36,12.38,12.38,0,0,1,2.31,0,4.22,4.22,0,0,1,1.71.58,3,3,0,0,1,1.1,1.31,6.4,6.4,0,0,1,.49,2.29Q189.59,40.56,190.49,55.05Z" transform="translate(0 -0.02)"/><path class="cls-1" d="M207.57,54a16.27,16.27,0,0,1-1.91.44,21.21,21.21,0,0,1-2.6.32,11.92,11.92,0,0,1-2.28-.06,4.13,4.13,0,0,1-1.69-.59A3,3,0,0,1,198,52.83a6.59,6.59,0,0,1-.48-2.29q-.87-14.49-1.75-29c.41-.1,1.07-.24,2-.42a19.07,19.07,0,0,1,2.59-.35,12.24,12.24,0,0,1,2.31.06,4.23,4.23,0,0,1,1.71.59,2.92,2.92,0,0,1,1.09,1.32,6.58,6.58,0,0,1,.48,2.28Z" transform="translate(0 -0.02)"/><path class="cls-1" d="M212.93,25.69a5,5,0,0,1,1.21-3.81,5.25,5.25,0,0,1,3.78-1.58c7.47-.4,11.21-.59,18.69-.94a6.64,6.64,0,0,1,.78,1.56A6.74,6.74,0,0,1,237.8,23a4,4,0,0,1-.79,3,3.48,3.48,0,0,1-2.42,1l-11.92.59c.1,2.05.15,3.07.26,5.11,5.08-.26,7.62-.38,12.69-.62a6.39,6.39,0,0,1,.78,1.53,6.73,6.73,0,0,1,.41,2,4.06,4.06,0,0,1-.76,3,3.31,3.31,0,0,1-2.38,1l-10.35.51c.11,2.31.17,3.47.29,5.77,5.78-.3,8.66-.44,14.44-.71a6.29,6.29,0,0,1,.77,1.56,6.8,6.8,0,0,1,.41,2.08,4.11,4.11,0,0,1-.79,3,3.33,3.33,0,0,1-2.39,1c-6.54.31-9.82.47-16.36.82a5.25,5.25,0,0,1-3.88-1.17,5,5,0,0,1-1.61-3.66C213.69,39.63,213.44,35,212.93,25.69Zm11.48-12.78c-1.13.9-2.13,1.68-3,2.33s-1.71,1.29-2.51,1.92a4.36,4.36,0,0,1-2.92-.81A3,3,0,0,1,214.68,14a3.43,3.43,0,0,1,.44-1.95,7.66,7.66,0,0,1,2-2l2-1.53A18.39,18.39,0,0,1,221.63,7,6,6,0,0,1,224,6.32a6.36,6.36,0,0,1,2.64.36,11.72,11.72,0,0,1,2.64,1.64l4.8,3.67a5.3,5.3,0,0,1-.68,3.09,2.93,2.93,0,0,1-2.53,1.31,4.47,4.47,0,0,1-1.05-.06,5.57,5.57,0,0,1-1.07-.33,7.43,7.43,0,0,1-1.29-.74q-.7-.48-1.65-1.26Zm-1.69,48.28a4.53,4.53,0,0,1,1.22-3.39,5.27,5.27,0,0,1,7.16-.37,4.6,4.6,0,0,1,1.57,3.26,4.55,4.55,0,0,1-1.24,3.39,5.26,5.26,0,0,1-7.14.36A4.56,4.56,0,0,1,222.72,61.19Z" transform="translate(0 -0.02)"/><path class="cls-1" d="M274.84,38.84a13.61,13.61,0,0,1-.85,5.45,11.46,11.46,0,0,1-2.85,4.28,13.58,13.58,0,0,1-4.67,2.84,22.18,22.18,0,0,1-12.67.51,13.78,13.78,0,0,1-4.88-2.47,11.43,11.43,0,0,1-3.18-4A13.68,13.68,0,0,1,244.46,40c-.38-8.4-.56-12.6-.94-21l2-.39a18.93,18.93,0,0,1,2.6-.31,11.83,11.83,0,0,1,2.3.1,4.09,4.09,0,0,1,1.7.61,3,3,0,0,1,1.08,1.34,6.3,6.3,0,0,1,.43,2.29l.7,16.76A5.53,5.53,0,0,0,256,43.51a5.78,5.78,0,0,0,7.72-.3A5.61,5.61,0,0,0,265,39c-.31-8.33-.47-12.5-.79-20.83.42-.09,1.07-.22,2-.38a18.63,18.63,0,0,1,2.6-.29,12.65,12.65,0,0,1,2.3.11,4.25,4.25,0,0,1,1.69.63,2.88,2.88,0,0,1,1.07,1.34,6.38,6.38,0,0,1,.42,2.3C274.49,28.68,274.61,32.07,274.84,38.84Z" transform="translate(0 -0.02)"/><path class="cls-1" d="M303.16,37.94l.3,12.16a16,16,0,0,1-1.95.37,20.24,20.24,0,0,1-2.63.24,12.29,12.29,0,0,1-2.28-.13,4.11,4.11,0,0,1-1.67-.64,3,3,0,0,1-1.05-1.35,6.47,6.47,0,0,1-.4-2.3q-.42-14.52-.83-29,.63-.14,2-.36a18.61,18.61,0,0,1,2.6-.26,11.64,11.64,0,0,1,2.3.13,4.06,4.06,0,0,1,1.69.64,3,3,0,0,1,1.06,1.35,6.7,6.7,0,0,1,.4,2.3c.08,3.5.13,5.25.22,8.74,4.56-5.37,6.85-8,11.46-13.41q3.86-.08,5.55,1.29A4.21,4.21,0,0,1,321.65,21a5.19,5.19,0,0,1-.69,2.71,14.06,14.06,0,0,1-2.32,2.91l-6.91,7c1,1,2,2,3,3.13s2.09,2.13,3.11,3.15,2,2,2.92,2.94l2.44,2.43a5,5,0,0,1-.41,2.16A4.87,4.87,0,0,1,321.64,49a5.22,5.22,0,0,1-1.69,1,6.34,6.34,0,0,1-2,.37,6,6,0,0,1-3.78-1,20.3,20.3,0,0,1-2.87-2.61C308.05,43.24,306.42,41.47,303.16,37.94Z" transform="translate(0 -0.02)"/><path class="cls-1" d="M358.47,49.22a15.57,15.57,0,0,1-1.93.34,21.11,21.11,0,0,1-2.61.19,11.86,11.86,0,0,1-2.27-.17A4.09,4.09,0,0,1,350,48.9a3,3,0,0,1-1-1.36,6.58,6.58,0,0,1-.36-2.31c0-3.43-.05-5.15-.08-8.58-4.33,0-6.49.07-10.81.13.07,5.06.1,7.59.17,12.65a16.74,16.74,0,0,1-1.93.36,21.14,21.14,0,0,1-2.61.2,11.93,11.93,0,0,1-2.27-.16,4.18,4.18,0,0,1-1.67-.66,3,3,0,0,1-1-1.36,6.53,6.53,0,0,1-.37-2.3q-.25-14.52-.49-29l2-.34a18.43,18.43,0,0,1,2.6-.23,12.26,12.26,0,0,1,2.3.16,4.23,4.23,0,0,1,1.68.66,3,3,0,0,1,1,1.36,6.41,6.41,0,0,1,.37,2.31c.05,3.52.08,5.28.12,8.8,4.34-.06,6.51-.09,10.84-.13-.05-5.15-.07-7.72-.13-12.87.42-.08,1.08-.18,2-.32a18.37,18.37,0,0,1,2.6-.22,11.36,11.36,0,0,1,2.3.18,4.09,4.09,0,0,1,1.68.67,3,3,0,0,1,1,1.37,6.38,6.38,0,0,1,.35,2.31Q358.38,34.7,358.47,49.22Z" transform="translate(0 -0.02)"/><path class="cls-1" d="M364,32.69a19.42,19.42,0,0,1,1.34-7.6,15.67,15.67,0,0,1,3.78-5.54,16,16,0,0,1,5.65-3.4,22,22,0,0,1,14.12,0,16.48,16.48,0,0,1,5.68,3.41,15.52,15.52,0,0,1,3.79,5.55,19.45,19.45,0,0,1,1.33,7.6,20.24,20.24,0,0,1-1.4,7.61,15.47,15.47,0,0,1-3.77,5.54,16.12,16.12,0,0,1-5.65,3.35,20.81,20.81,0,0,1-7.07,1.14,20.53,20.53,0,0,1-7.07-1.18,15.82,15.82,0,0,1-5.62-3.42,16.11,16.11,0,0,1-3.73-5.54A19.74,19.74,0,0,1,364,32.69Zm10.15,0q0,5,2.09,7.48a7.56,7.56,0,0,0,11.19,0c1.39-1.64,2.1-4.13,2.11-7.47s-.66-5.78-2-7.43a6.89,6.89,0,0,0-5.62-2.49,7,7,0,0,0-5.62,2.45C374.84,26.83,374.14,29.32,374.15,32.65ZM385,2.57a6.71,6.71,0,0,1,4,1.3,3.27,3.27,0,0,1,1.19,2.51,3.42,3.42,0,0,1-.95,2.52,8.37,8.37,0,0,1-2.93,1.7l-7.78,3a5,5,0,0,1-2.64-1.32,3,3,0,0,1-1-2.2,2.81,2.81,0,0,1,.43-1.48,3,3,0,0,1,1.33-1.16C380,5.46,381.63,4.5,385,2.57Z" transform="translate(0 -0.02)"/><path class="cls-1" d="M412.78,17.22a8.18,8.18,0,0,1,2.93-1,16,16,0,0,1,4-.45,14.64,14.64,0,0,1,5,.87,4.34,4.34,0,0,1,2.77,2.55q1,2.88,2.1,6.69t2.23,7.88c.74,2.71,1.47,5.38,2.17,8s1.31,5,1.83,7a4.7,4.7,0,0,1-2,1.2,10,10,0,0,1-3.2.41,10.14,10.14,0,0,1-2.27-.26,4.16,4.16,0,0,1-1.5-.68,3.31,3.31,0,0,1-.94-1.17,10.92,10.92,0,0,1-.62-1.66l-.95-3.81c-4.07-.07-6.1-.09-10.17-.14-.32,1.1-.63,2.23-.94,3.4s-.63,2.3-.94,3.4a13.4,13.4,0,0,1-1.66.45,9.9,9.9,0,0,1-2.1.17,7.48,7.48,0,0,1-4.23-1,3.08,3.08,0,0,1-1.35-2.68,5.49,5.49,0,0,1,.24-1.54c.15-.51.33-1.12.52-1.81.27-1,.64-2.21,1.13-3.68s1-3,1.59-4.74,1.19-3.45,1.85-5.24L410,24.31c.58-1.59,1.12-3,1.6-4.24A17.36,17.36,0,0,1,412.78,17.22Zm6.7,7.18q-.83,2.3-1.84,5.12c-.69,1.88-1.3,3.79-1.85,5.72l7,.1q-.74-3-1.52-5.83c-.52-1.89-1-3.6-1.43-5.11Z" transform="translate(0 -0.02)"/><path class="cls-1" d="M459.65,18.11a8,8,0,0,1,2.94-1,16.07,16.07,0,0,1,4-.38,14.54,14.54,0,0,1,5,.94,4.32,4.32,0,0,1,2.73,2.59q.93,2.89,2,6.73t2.12,7.91q1,4.08,2,8t1.72,7a4.57,4.57,0,0,1-2.06,1.17,11.34,11.34,0,0,1-5.47.06,4,4,0,0,1-1.49-.7,3.43,3.43,0,0,1-.92-1.19,9,9,0,0,1-.59-1.67l-.9-3.82c-4.07-.13-6.1-.19-10.17-.3-.33,1.1-.66,2.22-1,3.39s-.66,2.29-1,3.38a16.09,16.09,0,0,1-1.66.43,10.2,10.2,0,0,1-2.11.14,7.5,7.5,0,0,1-4.21-1.07,3.07,3.07,0,0,1-1.31-2.7,5.52,5.52,0,0,1,.26-1.54c.16-.5.35-1.11.55-1.8.29-1,.68-2.2,1.18-3.66s1.06-3,1.67-4.71,1.25-3.43,1.93-5.21,1.33-3.46,1.94-5,1.16-3,1.67-4.22A16.58,16.58,0,0,1,459.65,18.11Zm6.59,7.28q-.86,2.28-1.92,5.09c-.72,1.87-1.36,3.77-1.94,5.69l7,.21q-.69-3-1.43-5.85t-1.35-5.13Z" transform="translate(0 -0.02)"/><path class="cls-1" d="M517.52,51.42a5.17,5.17,0,0,1-2.32,1.08,13.2,13.2,0,0,1-3.58.25,12.81,12.81,0,0,1-3.9-.77,5.43,5.43,0,0,1-2.9-3c-2-4.54-3.06-6.8-5.11-11.33-.52-1.16-1-2.25-1.39-3.28s-.86-2.21-1.33-3.55l-.34,0q.11,3,0,6.06t-.21,6c-.14,3.41-.2,5.11-.34,8.52a15.19,15.19,0,0,1-1.89.25,19,19,0,0,1-2.5.07,13.44,13.44,0,0,1-2.18-.24,3.39,3.39,0,0,1-1.54-.72,3.08,3.08,0,0,1-.9-1.38,6.09,6.09,0,0,1-.26-2.24l1-27.49a4.74,4.74,0,0,1,2.49-1.56,11.1,11.1,0,0,1,3.54-.41,12.45,12.45,0,0,1,4,.78,5.32,5.32,0,0,1,2.91,3c2.09,4.53,3.13,6.8,5.2,11.33.51,1.16,1,2.26,1.38,3.28s.85,2.21,1.32,3.55l.28,0c-.06-2-.07-4,0-6s.11-3.95.2-5.93c.15-3.56.23-5.34.38-8.91a16.37,16.37,0,0,1,1.91-.24,19.56,19.56,0,0,1,2.53-.06,7,7,0,0,1,3.76,1c.84.6,1.22,1.81,1.14,3.6Z" transform="translate(0 -0.02)"/><path class="cls-1" d="M555.12,54.34a17.41,17.41,0,0,1-2,.21,20.69,20.69,0,0,1-2.61,0,12.53,12.53,0,0,1-2.26-.32,4.17,4.17,0,0,1-1.61-.78,3,3,0,0,1-.93-1.43,6.49,6.49,0,0,1-.21-2.33c.19-3.43.28-5.14.47-8.57l-10.8-.58-.65,12.64a16.92,16.92,0,0,1-2,.23,23,23,0,0,1-2.62,0,11.75,11.75,0,0,1-2.26-.31,4.07,4.07,0,0,1-1.62-.77,3,3,0,0,1-.94-1.42,6.61,6.61,0,0,1-.22-2.32l1.41-29,2-.21a19.24,19.24,0,0,1,2.61-.06,12.08,12.08,0,0,1,2.29.31,4.12,4.12,0,0,1,1.63.77,2.9,2.9,0,0,1,1,1.43,6.4,6.4,0,0,1,.22,2.32L535.62,33l10.82.58c.29-5.14.43-7.71.72-12.85.42-.05,1.08-.11,2-.19a17.65,17.65,0,0,1,2.61,0,12,12,0,0,1,2.29.32,4.34,4.34,0,0,1,1.63.78,3.1,3.1,0,0,1,.94,1.44,6.43,6.43,0,0,1,.2,2.32Z" transform="translate(0 -0.02)"/><path class="cls-1" d="M594,56a6.14,6.14,0,0,1-2.52,1,12.69,12.69,0,0,1-3.64.24,10.83,10.83,0,0,1-4-1,4.21,4.21,0,0,1-2.16-2c-.36-.86-.79-2-1.3-3.37s-1-2.91-1.58-4.6-1.1-3.48-1.67-5.38S576,37,575.49,35.1s-1-3.85-1.44-5.72-.82-3.62-1.13-5.25a7.4,7.4,0,0,1,2.38-1.26,8.32,8.32,0,0,1,3.24-.42,6.18,6.18,0,0,1,3.36,1.08,5.14,5.14,0,0,1,1.74,3.29q1.17,5.48,2.38,10.5t2.52,10.46l.34,0q1.88-5.05,3.91-11t4-11.91A12.84,12.84,0,0,1,599,24.2a9.89,9.89,0,0,1,2.66-.14,6.85,6.85,0,0,1,3.5,1.17,3.24,3.24,0,0,1,1.24,3.1,15.35,15.35,0,0,1-.85,3.47c-.52,1.5-1.15,3.19-1.92,5.07s-1.6,3.82-2.52,5.85-1.84,3.94-2.74,5.73-1.74,3.36-2.51,4.72A14.88,14.88,0,0,1,594,56Z" transform="translate(0 -0.02)"/><path class="cls-1" d="M618.85,26.54a8.12,8.12,0,0,1,3-.81,16,16,0,0,1,4-.18,14.74,14.74,0,0,1,4.94,1.21,4.33,4.33,0,0,1,2.59,2.73q.76,2.94,1.64,6.82c.57,2.59,1.14,5.26,1.69,8s1.1,5.47,1.62,8.14,1,5,1.36,7.11a4.74,4.74,0,0,1-2.12,1.06,10.06,10.06,0,0,1-3.23.19,10.72,10.72,0,0,1-2.24-.41,4,4,0,0,1-1.46-.79,3.31,3.31,0,0,1-.85-1.23,9.79,9.79,0,0,1-.51-1.7c-.28-1.55-.41-2.32-.69-3.87L618.41,52q-.58,1.61-1.17,3.33c-.39,1.14-.78,2.25-1.16,3.32a14.43,14.43,0,0,1-1.69.34,10.32,10.32,0,0,1-2.11,0,7.48,7.48,0,0,1-4.15-1.29A3.06,3.06,0,0,1,607,55a5.39,5.39,0,0,1,.34-1.52c.19-.5.4-1.09.64-1.77q.51-1.45,1.38-3.6c.58-1.42,1.21-3,1.91-4.62s1.43-3.36,2.2-5.1S615,35,615.64,33.43s1.31-2.92,1.88-4.13A17.53,17.53,0,0,1,618.85,26.54Zm7.23-3.45q-4.76-.39-7.18-2.26a4.88,4.88,0,0,1-2.22-4.34,4,4,0,0,1,1.32-2.6,4.35,4.35,0,0,1,3.53-1l.51,0a2.69,2.69,0,0,1,.51.1,3.45,3.45,0,0,0,1.26,2.14,4.83,4.83,0,0,0,2.82,1.06,4.73,4.73,0,0,0,2.94-.59,3.77,3.77,0,0,0,1.61-1.91,3.09,3.09,0,0,1,.52,0l.51,0a4.37,4.37,0,0,1,3.33,1.55,4,4,0,0,1,.88,2.78,4.89,4.89,0,0,1-2.9,3.92C631.73,23,629.25,23.35,626.08,23.09Zm-1,11.07q-1,2.23-2.19,5t-2.24,5.58l7,.57q-.54-3-1.13-5.91c-.39-1.93-.74-3.66-1.07-5.2Z" transform="translate(0 -0.02)"/><path class="cls-1" d="M674.94,62.85a5.17,5.17,0,0,1-2.38,1,14,14,0,0,1-3.58.06,12.52,12.52,0,0,1-3.86-1,5.41,5.41,0,0,1-2.74-3.19c-1.8-4.63-2.7-7-4.51-11.58-.46-1.19-.86-2.3-1.22-3.35s-.74-2.25-1.14-3.61l-.35,0q0,3-.3,6t-.52,6c-.31,3.4-.47,5.09-.78,8.49a18.11,18.11,0,0,1-1.91.16,20.77,20.77,0,0,1-2.5-.06,14.26,14.26,0,0,1-2.16-.36,3.46,3.46,0,0,1-1.51-.8,3.17,3.17,0,0,1-.83-1.43,6.24,6.24,0,0,1-.14-2.25l2.43-27.39a4.71,4.71,0,0,1,2.58-1.43,10.7,10.7,0,0,1,3.55-.23A12.48,12.48,0,0,1,657,29a5.34,5.34,0,0,1,2.75,3.16c1.85,4.63,2.77,7,4.6,11.59.46,1.18.86,2.3,1.21,3.35s.73,2.25,1.13,3.61l.29,0q.06-3,.28-6c.15-2,.33-3.94.51-5.91l.85-8.87a16.62,16.62,0,0,1,1.93-.15,19.28,19.28,0,0,1,2.53.08,7,7,0,0,1,3.7,1.22c.81.65,1.13,1.87,1,3.66Z" transform="translate(0 -0.02)"/><path class="cls-1" d="M723.54,69a14.84,14.84,0,0,1-2,.1A20.37,20.37,0,0,1,719,69a12.11,12.11,0,0,1-2.24-.45,4,4,0,0,1-1.57-.87,3,3,0,0,1-.85-1.48,6.41,6.41,0,0,1-.08-2.33c.38-3.41.57-5.12,1-8.53l-10.77-1.19c-.54,5-.82,7.55-1.36,12.58a14.18,14.18,0,0,1-2,.12,20.64,20.64,0,0,1-2.62-.11,12.51,12.51,0,0,1-2.24-.44,4,4,0,0,1-1.57-.85A3,3,0,0,1,693.8,64a6.6,6.6,0,0,1-.09-2.33q1.51-14.44,3-28.89l2-.09a18.63,18.63,0,0,1,2.62.09,12.93,12.93,0,0,1,2.27.43,4.2,4.2,0,0,1,1.59.87,3,3,0,0,1,.86,1.48,6.16,6.16,0,0,1,.09,2.33l-1,8.75L716,47.78c.58-5.12.87-7.67,1.44-12.79.42,0,1.09-.05,2-.08a18.59,18.59,0,0,1,2.62.1,11.67,11.67,0,0,1,2.26.46,4.2,4.2,0,0,1,1.59.87,3,3,0,0,1,.85,1.48,6.47,6.47,0,0,1,.08,2.34Z" transform="translate(0 -0.02)"/><path class="cls-1" d="M733.68,42a5,5,0,0,1,1.85-3.54,5.28,5.28,0,0,1,4-.91c7.44.89,11.16,1.34,18.6,2.28a6,6,0,0,1,.51,1.67,7.08,7.08,0,0,1,.05,2.11,4,4,0,0,1-1.3,2.84,3.47,3.47,0,0,1-2.56.56L743,45.55c-.24,2-.36,3.05-.61,5.08,5,.61,7.58.92,12.63,1.55a7,7,0,0,1,.51,1.65,6.86,6.86,0,0,1,0,2.08,4,4,0,0,1-1.27,2.84,3.29,3.29,0,0,1-2.51.57l-10.31-1.27c-.28,2.3-.42,3.45-.69,5.74,5.74.69,8.62,1.05,14.36,1.77a6.51,6.51,0,0,1,.5,1.67,7.14,7.14,0,0,1,0,2.12,4.07,4.07,0,0,1-1.3,2.85,3.31,3.31,0,0,1-2.54.6c-6.51-.81-9.77-1.21-16.28-2A5.22,5.22,0,0,1,731.92,69a5,5,0,0,1-1-3.88C732.05,55.87,732.59,51.25,733.68,42Zm5.11-11.19a4,4,0,0,1-.23-1.25,7.6,7.6,0,0,1,.05-1.1,3.87,3.87,0,0,1,1.44-2.71,4.16,4.16,0,0,1,3.16-.73,5.37,5.37,0,0,1,1.88.59,19.13,19.13,0,0,1,1.92,1.2l7.23,4.77a1.69,1.69,0,0,1,0,.45l-.06.43a4.55,4.55,0,0,1-1.36,2.94,3.16,3.16,0,0,1-2.6.84,9.14,9.14,0,0,1-3.13-1.1Z" transform="translate(0 -0.02)"/><path class="cls-2" d="M36.35,60.76A4.22,4.22,0,0,1,36,63.33a6.27,6.27,0,0,1-1.76,1.8,11.86,11.86,0,0,1-1.84,1.06,20.27,20.27,0,0,1-2.46,1,25.89,25.89,0,0,1-2.86.8,28.58,28.58,0,0,1-3,.53,26,26,0,0,1-7.6-.16,17.46,17.46,0,0,1-6.46-2.44A15.51,15.51,0,0,1,5.31,61.1a17.53,17.53,0,0,1-2.44-7.24,17.33,17.33,0,0,1,.67-8,16.4,16.4,0,0,1,3.67-6,18.59,18.59,0,0,1,5.8-4,24.2,24.2,0,0,1,7.07-2,18.13,18.13,0,0,1,8.62.66q3.3,1.29,3.61,3.95A4.14,4.14,0,0,1,31.86,41a6,6,0,0,1-1.48,1.82,22.8,22.8,0,0,0-3.68-1.19,13.34,13.34,0,0,0-4.81-.23,10.49,10.49,0,0,0-7.14,3.5,9.48,9.48,0,0,0-1.88,7.55,11.27,11.27,0,0,0,1.28,4.22,8.19,8.19,0,0,0,2.39,2.73,8.38,8.38,0,0,0,3.16,1.38,10.9,10.9,0,0,0,3.62.14,10.13,10.13,0,0,0,2.14-.47,6,6,0,0,0,1.38-.66l-.6-5.1-5.95.71a8.3,8.3,0,0,1-.83-1.5,6.71,6.71,0,0,1-.56-2A3.76,3.76,0,0,1,19.48,49a3.31,3.31,0,0,1,2.27-1.15l9.42-1.11a3.59,3.59,0,0,1,2.7.59,3.41,3.41,0,0,1,1.21,2.42Z" transform="translate(0 -0.02)"/><path class="cls-2" d="M53,64.11a16.09,16.09,0,0,1-1.88.53,19.08,19.08,0,0,1-2.56.45,11,11,0,0,1-2.26.06,3.94,3.94,0,0,1-1.71-.49,3,3,0,0,1-1.15-1.24,6.36,6.36,0,0,1-.59-2.25L39.62,32.52c.4-.12,1.05-.29,1.93-.52a17.63,17.63,0,0,1,2.56-.48,12.93,12.93,0,0,1,2.29-.06,4.07,4.07,0,0,1,1.73.5,2.89,2.89,0,0,1,1.15,1.24,6.36,6.36,0,0,1,.59,2.25Z" transform="translate(0 -0.02)"/><path class="cls-2" d="M56.8,47.22a19.42,19.42,0,0,1,.56-7.65,15.48,15.48,0,0,1,3.17-5.85,15.89,15.89,0,0,1,5.25-3.93,20.76,20.76,0,0,1,6.86-1.87,20.55,20.55,0,0,1,8.65.87A14.73,14.73,0,0,1,88,33.26a12,12,0,0,0,.83-3.4c.12-1.23-.33-3.81.09-4.64.14-.28,1-.61,1.53-.81a8,8,0,0,1,2-.41,6,6,0,0,1,3.25.55,3.06,3.06,0,0,1,1.64,2.72,11.72,11.72,0,0,1-.16,3.33A12.18,12.18,0,0,1,96,33.84a11.68,11.68,0,0,1-2,2.79,9.67,9.67,0,0,1-2.91,2A19.61,19.61,0,0,1,91.72,41a25.13,25.13,0,0,1,.39,2.59,20,20,0,0,1-.62,7.66,15.31,15.31,0,0,1-3.16,5.85A15.92,15.92,0,0,1,83.08,61a21,21,0,0,1-6.87,1.85,20.35,20.35,0,0,1-7.11-.45,15.39,15.39,0,0,1-10.16-7.9A19.7,19.7,0,0,1,56.8,47.22Zm10-1.07c.34,3.29,1.29,5.68,2.83,7.17a7.53,7.53,0,0,0,11.07-1.13c1.21-1.76,1.65-4.3,1.32-7.59S80.82,39,79.29,37.46a6.89,6.89,0,0,0-5.81-1.88,7,7,0,0,0-5.31,3C66.94,40.33,66.49,42.85,66.84,46.15Zm8.33-30.89a6.7,6.7,0,0,1,4.07.89,3.23,3.23,0,0,1,1.42,2.35A3.34,3.34,0,0,1,80,21.09a8.34,8.34,0,0,1-2.72,2l-7.4,3.71a5,5,0,0,1-2.74-1,3,3,0,0,1-1.21-2.07,2.88,2.88,0,0,1,.27-1.51,3,3,0,0,1,1.2-1.28C70.49,18.63,72.05,17.51,75.17,15.26Z" transform="translate(0 -0.02)"/><path class="cls-2" d="M112.49,58.18a17.83,17.83,0,0,1-1.89.5,20.86,20.86,0,0,1-2.56.39,11.57,11.57,0,0,1-2.27,0,4.05,4.05,0,0,1-1.7-.53A2.91,2.91,0,0,1,103,57.29,6.49,6.49,0,0,1,102.4,55L99.73,26.33c.41-.11,1-.27,1.94-.48a17.54,17.54,0,0,1,2.56-.43,12.62,12.62,0,0,1,2.29,0,4.25,4.25,0,0,1,1.72.53,2.92,2.92,0,0,1,1.13,1.27,6.29,6.29,0,0,1,.54,2.26Z" transform="translate(0 -0.02)"/><path class="cls-2" d="M127.15,31.58a6.75,6.75,0,0,1-.87-1.57,7,7,0,0,1-.52-2.15,4,4,0,0,1,.73-3.13A3.58,3.58,0,0,1,129,23.59c9.8-.81,14.69-1.2,24.49-1.93a7.57,7.57,0,0,1,1.35,3.73,4,4,0,0,1-.75,3.12,3.56,3.56,0,0,1-2.48,1.12l-6.22.48c.78,10.06,1.18,15.09,2,25.15a16.51,16.51,0,0,1-1.89.48,20.93,20.93,0,0,1-2.57.37,13.1,13.1,0,0,1-2.27,0,4.11,4.11,0,0,1-1.69-.55,3,3,0,0,1-1.11-1.28,6.67,6.67,0,0,1-.52-2.26c-.68-8.45-1-12.68-1.71-21.12Z" transform="translate(0 -0.02)"/><path class="cls-2" d="M191.83,52.13a14.26,14.26,0,0,1-1.9.45,19,19,0,0,1-2.57.33,12,12,0,0,1-2.27,0,4,4,0,0,1-1.68-.58,2.93,2.93,0,0,1-1.09-1.3,6.44,6.44,0,0,1-.49-2.26c-.22-3.4-.34-5.1-.56-8.5L170.55,41c.35,5,.53,7.52.88,12.53a15.72,15.72,0,0,1-1.9.47,20.81,20.81,0,0,1-2.57.34,12,12,0,0,1-2.27,0A3.93,3.93,0,0,1,163,53.7a2.87,2.87,0,0,1-1.1-1.29,6.21,6.21,0,0,1-.5-2.26l-2.1-28.76c.4-.11,1.05-.25,1.94-.44a17.55,17.55,0,0,1,2.57-.38,12.24,12.24,0,0,1,2.29,0,4.16,4.16,0,0,1,1.71.56,3,3,0,0,1,1.1,1.29,6.26,6.26,0,0,1,.5,2.27c.24,3.49.37,5.23.61,8.72,4.3-.3,6.45-.45,10.74-.73-.33-5.1-.5-7.66-.84-12.76q.62-.15,1.95-.42a17.42,17.42,0,0,1,2.57-.36,12.16,12.16,0,0,1,2.29,0,4.17,4.17,0,0,1,1.7.58,3,3,0,0,1,1.1,1.3,6.46,6.46,0,0,1,.48,2.26Q190.92,37.75,191.83,52.13Z" transform="translate(0 -0.02)"/><path class="cls-2" d="M208.79,51.12a15,15,0,0,1-1.9.43,19.34,19.34,0,0,1-2.58.32,11.71,11.71,0,0,1-2.26-.06,4,4,0,0,1-1.68-.58,3,3,0,0,1-1.09-1.31,6.72,6.72,0,0,1-.47-2.27q-.87-14.38-1.73-28.78.6-.15,1.95-.42a18.73,18.73,0,0,1,2.57-.34,12,12,0,0,1,2.29.06,4.17,4.17,0,0,1,1.7.58,3,3,0,0,1,1.09,1.31,6.72,6.72,0,0,1,.47,2.27Q208,36.72,208.79,51.12Z" transform="translate(0 -0.02)"/><path class="cls-2" d="M214.11,23a4.92,4.92,0,0,1,1.2-3.79,5.28,5.28,0,0,1,3.75-1.57c7.42-.39,11.14-.57,18.56-.92a6.55,6.55,0,0,1,.78,1.55,6.91,6.91,0,0,1,.4,2.06,3.92,3.92,0,0,1-.79,3,3.38,3.38,0,0,1-2.4,1l-11.83.59.26,5.07c5-.26,7.56-.38,12.6-.62a6.31,6.31,0,0,1,.77,1.52,6.72,6.72,0,0,1,.41,2,4,4,0,0,1-.76,3,3.3,3.3,0,0,1-2.36,1l-10.28.51.3,5.73c5.73-.3,8.59-.44,14.33-.71a6.76,6.76,0,0,1,.77,1.55,7,7,0,0,1,.4,2.06,4.1,4.1,0,0,1-.78,3,3.32,3.32,0,0,1-2.38,1c-6.49.31-9.74.47-16.24.82A5.22,5.22,0,0,1,217,49.68a5,5,0,0,1-1.59-3.63C214.87,36.82,214.61,32.2,214.11,23Zm11.4-12.69c-1.12.9-2.12,1.67-3,2.31s-1.7,1.29-2.5,1.91a4.34,4.34,0,0,1-2.89-.8,3,3,0,0,1-1.28-2.31,3.38,3.38,0,0,1,.43-1.94,7.58,7.58,0,0,1,2-2l2-1.52a16.16,16.16,0,0,1,2.55-1.58,5.91,5.91,0,0,1,2.32-.64,6.26,6.26,0,0,1,2.62.36,11.5,11.5,0,0,1,2.63,1.62l4.75,3.65a5.17,5.17,0,0,1-.67,3.07,2.92,2.92,0,0,1-2.51,1.3,5.77,5.77,0,0,1-1-.06,5.29,5.29,0,0,1-1.06-.33,8,8,0,0,1-1.28-.73q-.7-.49-1.65-1.26Zm-1.68,47.94A4.52,4.52,0,0,1,225,54.86a5.22,5.22,0,0,1,7.11-.36,4.63,4.63,0,0,1,.33,6.6A4.86,4.86,0,0,1,229,62.67a4.79,4.79,0,0,1-3.61-1.21A4.48,4.48,0,0,1,223.83,58.23Z" transform="translate(0 -0.02)"/><path class="cls-2" d="M275.58,36a13.66,13.66,0,0,1-.84,5.42,11.52,11.52,0,0,1-2.84,4.25,13.66,13.66,0,0,1-4.63,2.82,22,22,0,0,1-12.58.5,13.48,13.48,0,0,1-4.84-2.45,11.45,11.45,0,0,1-3.17-4,13.6,13.6,0,0,1-1.27-5.32c-.37-8.34-.56-12.51-.93-20.85.41-.09,1.06-.22,2-.38a18.48,18.48,0,0,1,2.58-.31,12.66,12.66,0,0,1,2.29.1,4,4,0,0,1,1.68.61,2.94,2.94,0,0,1,1.07,1.32,6.29,6.29,0,0,1,.43,2.28c.28,6.66.42,10,.69,16.64a5.53,5.53,0,0,0,1.65,4,5.73,5.73,0,0,0,7.67-.31,5.62,5.62,0,0,0,1.3-4.15c-.31-8.27-.47-12.41-.78-20.68.41-.09,1.06-.21,2-.37a18.36,18.36,0,0,1,2.58-.29,12.43,12.43,0,0,1,2.28.11,4.1,4.1,0,0,1,1.69.62,3,3,0,0,1,1.06,1.33,6.6,6.6,0,0,1,.41,2.28C275.24,26,275.35,29.31,275.58,36Z" transform="translate(0 -0.02)"/><path class="cls-2" d="M303.69,35.14c.12,4.83.18,7.24.31,12.07a15.69,15.69,0,0,1-1.94.38,21.58,21.58,0,0,1-2.62.23,12.12,12.12,0,0,1-2.26-.13,4,4,0,0,1-1.66-.64,3,3,0,0,1-1-1.33,6.64,6.64,0,0,1-.4-2.29l-.81-28.82c.41-.09,1.06-.21,2-.36a18.34,18.34,0,0,1,2.58-.26,12.4,12.4,0,0,1,2.29.13,4,4,0,0,1,1.67.64,3,3,0,0,1,1.05,1.34,6.62,6.62,0,0,1,.4,2.28c.08,3.48.13,5.21.21,8.68,4.54-5.33,6.81-8,11.39-13.31q3.82-.09,5.51,1.28a4.14,4.14,0,0,1,1.72,3.27,5.23,5.23,0,0,1-.68,2.69,13.55,13.55,0,0,1-2.3,2.88c-2.75,2.79-4.12,4.18-6.86,7,1,1,2,2,3,3.1s2.07,2.11,3.08,3.13L321.21,40l2.41,2.41a4.87,4.87,0,0,1-.4,2.14,5,5,0,0,1-1.17,1.61,5.13,5.13,0,0,1-1.68,1,6.61,6.61,0,0,1-5.75-.67,20.61,20.61,0,0,1-2.85-2.59C308.55,40.4,306.94,38.65,303.69,35.14Z" transform="translate(0 -0.02)"/><path class="cls-2" d="M358.61,46.34a14.66,14.66,0,0,1-1.92.34,20.63,20.63,0,0,1-2.58.19,12.61,12.61,0,0,1-2.26-.17A4.24,4.24,0,0,1,350.2,46a2.88,2.88,0,0,1-1-1.36,6.5,6.5,0,0,1-.36-2.29c0-3.41-.05-5.11-.09-8.52L338,34c.07,5,.1,7.54.17,12.56a14.94,14.94,0,0,1-1.92.35,20.7,20.7,0,0,1-2.58.21,11.82,11.82,0,0,1-2.26-.16,4.09,4.09,0,0,1-1.65-.66,2.91,2.91,0,0,1-1-1.34,6.51,6.51,0,0,1-.37-2.29q-.24-14.41-.49-28.84c.41-.08,1.07-.19,2-.33a18.16,18.16,0,0,1,2.58-.23,12.15,12.15,0,0,1,2.29.16,4.09,4.09,0,0,1,1.67.65,3,3,0,0,1,1,1.36,6.71,6.71,0,0,1,.37,2.29c0,3.49.07,5.24.12,8.73,4.3-.06,6.45-.08,10.76-.12-.05-5.12-.08-7.67-.13-12.78.41-.08,1.07-.19,2-.32A18.23,18.23,0,0,1,353.1,13a12,12,0,0,1,2.28.18,4,4,0,0,1,1.66.67,2.88,2.88,0,0,1,1,1.35,6.62,6.62,0,0,1,.35,2.3Q358.51,31.93,358.61,46.34Z" transform="translate(0 -0.02)"/><path class="cls-2" d="M364.1,29.93a19.38,19.38,0,0,1,1.34-7.55,15.51,15.51,0,0,1,3.74-5.5,16,16,0,0,1,5.62-3.37,21.85,21.85,0,0,1,14,0,16.29,16.29,0,0,1,5.64,3.39,15.34,15.34,0,0,1,3.76,5.51A19.33,19.33,0,0,1,399.54,30a20,20,0,0,1-1.39,7.56A15.42,15.42,0,0,1,394.41,43a16,16,0,0,1-5.62,3.34,21.16,21.16,0,0,1-7,1.13,20.72,20.72,0,0,1-7-1.18,15.38,15.38,0,0,1-9.28-8.9A19.81,19.81,0,0,1,364.1,29.93Zm10.08,0c0,3.32.7,5.79,2.08,7.43a7.51,7.51,0,0,0,11.11,0c1.38-1.63,2.08-4.11,2.09-7.42s-.66-5.74-2-7.38a6.87,6.87,0,0,0-5.58-2.47,7,7,0,0,0-5.59,2.43Q374.17,24.92,374.18,29.89ZM384.93,0a6.66,6.66,0,0,1,4,1.3,3.24,3.24,0,0,1,1.18,2.48,3.41,3.41,0,0,1-.94,2.51A8.61,8.61,0,0,1,386.22,8l-7.73,2.94a5.05,5.05,0,0,1-2.62-1.31,3,3,0,0,1-1-2.19A2.86,2.86,0,0,1,375.3,6a3,3,0,0,1,1.33-1.15Z" transform="translate(0 -0.02)"/><path class="cls-2" d="M412.54,14.57a8.24,8.24,0,0,1,2.91-1,16.26,16.26,0,0,1,3.92-.44,14.55,14.55,0,0,1,5,.87,4.28,4.28,0,0,1,2.74,2.52c.65,1.91,1.34,4.12,2.09,6.65s1.48,5.13,2.22,7.82,1.45,5.34,2.15,8,1.3,4.93,1.82,6.94a4.52,4.52,0,0,1-2,1.19,9.59,9.59,0,0,1-3.18.41,10,10,0,0,1-2.25-.25,4.2,4.2,0,0,1-1.49-.68,3.23,3.23,0,0,1-.93-1.16,9.82,9.82,0,0,1-.62-1.65c-.38-1.52-.57-2.27-.94-3.79l-10.1-.13c-.32,1.09-.63,2.21-.94,3.37s-.62,2.29-.93,3.38a15.7,15.7,0,0,1-1.64.45,9.92,9.92,0,0,1-2.09.16,7.4,7.4,0,0,1-4.2-1,3.06,3.06,0,0,1-1.34-2.66,5.41,5.41,0,0,1,.23-1.53c.16-.51.33-1.11.52-1.8.27-1,.64-2.19,1.12-3.64s1-3,1.58-4.72,1.19-3.42,1.84-5.19l1.85-5c.58-1.57,1.11-3,1.59-4.21A16.29,16.29,0,0,1,412.54,14.57Zm6.65,7.13q-.81,2.28-1.83,5.08t-1.84,5.68l6.94.1c-.49-2-1-3.9-1.51-5.79s-1-3.57-1.42-5.07Z" transform="translate(0 -0.02)"/><path class="cls-2" d="M459.07,15.45a8.19,8.19,0,0,1,2.93-1,15.76,15.76,0,0,1,3.92-.38,14.36,14.36,0,0,1,5,.94,4.29,4.29,0,0,1,2.71,2.57q.92,2.86,2,6.68t2.1,7.85c.69,2.7,1.37,5.37,2,8s1.23,5,1.72,7a4.57,4.57,0,0,1-2.05,1.16,11.38,11.38,0,0,1-5.43.07,4,4,0,0,1-1.48-.7,3.17,3.17,0,0,1-.91-1.18A8.9,8.9,0,0,1,471,44.8c-.36-1.51-.54-2.27-.89-3.79-4-.13-6.06-.18-10.1-.29-.33,1.08-.65,2.2-1,3.36s-.66,2.27-1,3.36a13.89,13.89,0,0,1-1.66.42,10,10,0,0,1-2.09.14,7.42,7.42,0,0,1-4.18-1.06,3.07,3.07,0,0,1-1.3-2.68,5.46,5.46,0,0,1,.26-1.53c.16-.5.34-1.1.54-1.79.29-1,.68-2.18,1.18-3.63s1.05-3,1.65-4.69,1.24-3.4,1.92-5.16l1.92-5c.61-1.57,1.16-3,1.66-4.19A17.54,17.54,0,0,1,459.07,15.45Zm6.55,7.23-1.91,5.05q-1.06,2.79-1.93,5.66l6.94.2c-.47-2-.94-3.92-1.43-5.81s-.93-3.58-1.33-5.09Z" transform="translate(0 -0.02)"/><path class="cls-2" d="M516.53,48.53a5.08,5.08,0,0,1-2.3,1.07,13.38,13.38,0,0,1-3.55.25,12.5,12.5,0,0,1-3.87-.77,5.37,5.37,0,0,1-2.89-3c-2-4.5-3-6.75-5.07-11.25-.51-1.15-1-2.23-1.38-3.25s-.85-2.19-1.32-3.52l-.34,0q.1,3,0,6t-.21,6c-.13,3.39-.2,5.08-.33,8.46a14.84,14.84,0,0,1-1.88.26,18.78,18.78,0,0,1-2.48.07,11.89,11.89,0,0,1-2.16-.25,3.38,3.38,0,0,1-1.54-.71,3.28,3.28,0,0,1-.9-1.37,6.22,6.22,0,0,1-.25-2.22q.5-13.65,1-27.29a4.68,4.68,0,0,1,2.48-1.55,10.91,10.91,0,0,1,3.51-.42,12.27,12.27,0,0,1,3.94.78,5.33,5.33,0,0,1,2.9,3c2.07,4.5,3.1,6.75,5.15,11.25.51,1.15,1,2.24,1.38,3.26s.84,2.19,1.3,3.52l.29,0q-.11-3,0-5.9c0-2,.11-3.93.2-5.9.15-3.53.23-5.3.38-8.84a16.14,16.14,0,0,1,1.9-.24,19.21,19.21,0,0,1,2.51-.06,7,7,0,0,1,3.73,1c.84.6,1.21,1.8,1.13,3.58Q517.18,34.52,516.53,48.53Z" transform="translate(0 -0.02)"/><path class="cls-2" d="M553.87,51.42a15.11,15.11,0,0,1-1.94.22,22.4,22.4,0,0,1-2.59,0,12.16,12.16,0,0,1-2.24-.32,4,4,0,0,1-1.61-.77,3,3,0,0,1-.92-1.42,6.63,6.63,0,0,1-.21-2.31c.19-3.4.28-5.11.47-8.51-4.29-.24-6.43-.35-10.72-.57l-.65,12.54a16.68,16.68,0,0,1-1.94.23,22.46,22.46,0,0,1-2.59,0,11.69,11.69,0,0,1-2.25-.3,4,4,0,0,1-1.6-.77,3,3,0,0,1-.94-1.41,6.55,6.55,0,0,1-.22-2.31q.71-14.4,1.4-28.8c.42-.05,1.08-.12,2-.2a16.36,16.36,0,0,1,2.6-.06,11.91,11.91,0,0,1,2.27.3,4.07,4.07,0,0,1,1.62.77,3,3,0,0,1,1,1.41,6.63,6.63,0,0,1,.21,2.31l-.45,8.73c4.3.22,6.45.34,10.75.58.29-5.11.43-7.66.71-12.76.42-.05,1.08-.12,2-.19a18.9,18.9,0,0,1,2.59-.05,12.52,12.52,0,0,1,2.27.32,4.22,4.22,0,0,1,1.62.78,3,3,0,0,1,.93,1.42,6.42,6.42,0,0,1,.2,2.31Q554.72,37,553.87,51.42Z" transform="translate(0 -0.02)"/><path class="cls-2" d="M592.46,53.07a6.19,6.19,0,0,1-2.5,1,12.21,12.21,0,0,1-3.62.23,10.43,10.43,0,0,1-4-1,4.2,4.2,0,0,1-2.16-2c-.35-.85-.77-2-1.28-3.34s-1-2.89-1.57-4.57-1.1-3.45-1.66-5.33-1.11-3.79-1.62-5.72-1-3.82-1.44-5.68-.82-3.59-1.12-5.21a7.28,7.28,0,0,1,2.36-1.25,8.24,8.24,0,0,1,3.22-.42,6.22,6.22,0,0,1,3.34,1.08,5.13,5.13,0,0,1,1.73,3.26q1.15,5.45,2.35,10.42t2.51,10.39l.34,0q1.86-5,3.88-11t3.92-11.82a12.48,12.48,0,0,1,2.22-.66,9.71,9.71,0,0,1,2.64-.14,6.65,6.65,0,0,1,3.47,1.17,3.19,3.19,0,0,1,1.23,3.07A15.06,15.06,0,0,1,603.9,29c-.5,1.5-1.14,3.18-1.89,5s-1.6,3.8-2.51,5.81-1.83,3.91-2.72,5.69-1.73,3.34-2.5,4.69A15.08,15.08,0,0,1,592.46,53.07Z" transform="translate(0 -0.02)"/><path class="cls-2" d="M617.14,23.82a8.36,8.36,0,0,1,3-.8,15.81,15.81,0,0,1,3.94-.18A14.81,14.81,0,0,1,629,24a4.32,4.32,0,0,1,2.57,2.71c.51,1.95,1.05,4.2,1.62,6.77s1.14,5.22,1.69,8,1.09,5.43,1.61,8.08,1,5,1.34,7.06a4.56,4.56,0,0,1-2.1,1.05,11.38,11.38,0,0,1-5.43-.22,4.23,4.23,0,0,1-1.45-.78,3.27,3.27,0,0,1-.85-1.22,10,10,0,0,1-.5-1.69c-.27-1.54-.41-2.3-.69-3.84l-10.07-.82c-.39,1.06-.77,2.17-1.16,3.3s-.78,2.24-1.16,3.31a13.88,13.88,0,0,1-1.68.33,10.12,10.12,0,0,1-2.09,0,7.37,7.37,0,0,1-4.12-1.28,3,3,0,0,1-1.16-2.74,5.38,5.38,0,0,1,.33-1.51c.19-.5.41-1.09.64-1.76.34-1,.79-2.15,1.37-3.57s1.21-2.94,1.89-4.59,1.42-3.33,2.2-5.06,1.5-3.36,2.18-4.9,1.31-2.9,1.88-4.09A17.73,17.73,0,0,1,617.14,23.82Zm7.18-3.42c-3.15-.26-5.52-1-7.12-2.24A4.86,4.86,0,0,1,615,13.84a4,4,0,0,1,1.31-2.58,4.33,4.33,0,0,1,3.51-1l.5,0a2.85,2.85,0,0,1,.51.1,3.39,3.39,0,0,0,1.25,2.12,4.7,4.7,0,0,0,2.8,1.05,4.57,4.57,0,0,0,2.91-.58,3.72,3.72,0,0,0,1.61-1.89,3.05,3.05,0,0,1,.51,0l.51.05a4.32,4.32,0,0,1,3.3,1.53,4,4,0,0,1,.88,2.76,4.85,4.85,0,0,1-2.88,3.9C629.93,20.3,627.47,20.66,624.32,20.4Zm-1,11-2.18,4.94q-1.2,2.73-2.22,5.55l6.92.56q-.54-3-1.12-5.87t-1.07-5.16Z" transform="translate(0 -0.02)"/><path class="cls-2" d="M672.84,59.88a5.17,5.17,0,0,1-2.36.94,13.39,13.39,0,0,1-3.57.07,12.55,12.55,0,0,1-3.82-1,5.41,5.41,0,0,1-2.73-3.17c-1.78-4.6-2.68-6.9-4.48-11.5-.45-1.18-.85-2.29-1.21-3.32s-.73-2.24-1.13-3.59l-.34,0c0,2-.13,4-.3,6s-.34,4-.52,6c-.31,3.37-.47,5.06-.78,8.43a13.4,13.4,0,0,1-1.89.16,20.39,20.39,0,0,1-2.48-.06,13.16,13.16,0,0,1-2.15-.36,3.46,3.46,0,0,1-1.5-.79,3.12,3.12,0,0,1-.82-1.42,6.14,6.14,0,0,1-.14-2.23q1.2-13.61,2.41-27.2a4.74,4.74,0,0,1,2.56-1.42,11.15,11.15,0,0,1,3.53-.23,12.64,12.64,0,0,1,3.9,1,5.29,5.29,0,0,1,2.74,3.13c1.83,4.6,2.74,6.9,4.56,11.51.45,1.18.85,2.29,1.2,3.32s.73,2.24,1.12,3.59l.29,0q.06-3,.28-5.9t.51-5.88c.34-3.52.51-5.28.84-8.81a16.68,16.68,0,0,1,1.91-.14,19.13,19.13,0,0,1,2.52.08,6.87,6.87,0,0,1,3.67,1.21c.81.64,1.12,1.86,1,3.63Q674.21,45.91,672.84,59.88Z" transform="translate(0 -0.02)"/><path class="cls-2" d="M721.09,66a16.77,16.77,0,0,1-2,.1,20.15,20.15,0,0,1-2.59-.13,11.58,11.58,0,0,1-2.23-.44,4,4,0,0,1-1.55-.87,2.93,2.93,0,0,1-.85-1.46,6.85,6.85,0,0,1-.08-2.32l.95-8.47-10.68-1.18c-.55,5-.82,7.49-1.36,12.49a18.1,18.1,0,0,1-2,.12,22.14,22.14,0,0,1-2.59-.12,11.62,11.62,0,0,1-2.23-.43,3.91,3.91,0,0,1-1.56-.85,3,3,0,0,1-.86-1.46,6.56,6.56,0,0,1-.09-2.32q1.51-14.34,3-28.68c.42,0,1.08-.06,2-.09a18.29,18.29,0,0,1,2.6.09,11.69,11.69,0,0,1,2.25.43,4.07,4.07,0,0,1,1.58.86,2.88,2.88,0,0,1,.87,1.46,6.37,6.37,0,0,1,.08,2.32c-.37,3.48-.56,5.21-.94,8.69,4.29.46,6.43.7,10.72,1.18.57-5.08.85-7.62,1.42-12.7l2-.08a18.33,18.33,0,0,1,2.6.11,10.93,10.93,0,0,1,2.24.45,4.2,4.2,0,0,1,1.58.86,3,3,0,0,1,.85,1.48,6.33,6.33,0,0,1,.07,2.31Q722.75,51.67,721.09,66Z" transform="translate(0 -0.02)"/><path class="cls-2" d="M731.16,39.18A4.93,4.93,0,0,1,733,35.65a5.3,5.3,0,0,1,4-.9c7.39.89,11.09,1.34,18.48,2.27a6.71,6.71,0,0,1,.5,1.66,7,7,0,0,1,0,2.1,3.94,3.94,0,0,1-1.3,2.81,3.44,3.44,0,0,1-2.53.56c-4.72-.59-7.07-.88-11.79-1.45-.24,2-.36,3-.61,5,5,.61,7.53.92,12.55,1.55a6.71,6.71,0,0,1,.5,1.63,6.8,6.8,0,0,1,.05,2.07,4,4,0,0,1-1.26,2.81,3.26,3.26,0,0,1-2.5.57l-10.23-1.26c-.28,2.28-.41,3.42-.69,5.7,5.71.69,8.56,1,14.26,1.76a6.31,6.31,0,0,1,.5,1.66,6.69,6.69,0,0,1,0,2.1,4,4,0,0,1-1.28,2.83,3.31,3.31,0,0,1-2.52.59c-6.47-.8-9.7-1.2-16.17-2a5.14,5.14,0,0,1-3.6-1.81,5,5,0,0,1-1-3.85C729.54,52.94,730.08,48.35,731.16,39.18Zm5.07-11.12a4.23,4.23,0,0,1-.23-1.23,7.53,7.53,0,0,1,0-1.1A3.82,3.82,0,0,1,737.48,23a4.11,4.11,0,0,1,3.14-.72,5.17,5.17,0,0,1,1.87.58,21.67,21.67,0,0,1,1.91,1.2l7.17,4.73a2.16,2.16,0,0,1,0,.44l-.06.43a4.53,4.53,0,0,1-1.35,2.92,3.14,3.14,0,0,1-2.58.83,8.94,8.94,0,0,1-3.11-1.09C741.18,30.63,739.53,29.78,736.23,28.06Z" transform="translate(0 -0.02)"/></svg>