<svg xmlns="http://www.w3.org/2000/svg" viewBox="0 0 140.92 86.58"><defs><style>.cls-1{fill:#4d4d4d;}</style></defs><g id="Layer_2" data-name="Layer 2"><g id="Layer_4" data-name="Layer 4"><path class="cls-1" d="M4.4,3A1.16,1.16,0,0,0,3.23,4.17v78A1.17,1.17,0,0,0,4.4,83.35H136.75a1.17,1.17,0,0,0,0-2.34H5.56V4.17A1.16,1.16,0,0,0,4.4,3Z"/><path class="cls-1" d="M8.79,4.4A4.4,4.4,0,1,0,4.4,8.79,4.4,4.4,0,0,0,8.79,4.4Z"/><path class="cls-1" d="M136.53,77.79a4.4,4.4,0,1,1-4.4,4.39A4.39,4.39,0,0,1,136.53,77.79Z"/></g></g></svg>